# File produced by Open Asset Import Library (http://www.assimp.sf.net)
# (assimp v4.1.216079013)

mtllib Soccer Ball Mesh.mtl

# 92 vertex positions
v  -226.5988616943359 -188.8072204589844 1079.877197265625
v  -453.2120361328125 188.8099670410156 1006.459106445313
v  -648.4124755859375 -206.3552398681641 889.9246826171875
v  -819.8916625976563 188.8105773925781 740.8164672851563
v  -959.9469604492188 -188.8142700195313 548.5966186523438
v  -733.32470703125 -566.4091186523438 622.0322875976563
v  -366.6543579101563 -566.4068603515625 887.6656494140625
v  -1099.998413085938 -188.8045654296875 118.8044738769531
v  -1100 188.8125915527344 -118.7793579101563
v  -1049.17041015625 -206.3576202392578 -339.9096069335938
v  -959.9411010742188 188.8134002685547 -548.60791015625
v  -819.8831176757813 -188.8112335205078 -740.8263549804688
v  -819.8929443359375 -566.4215087890625 -503.2103271484375
v  -959.9429321289063 -566.4166870117188 -73.39081573486328
v  -453.219970703125 -188.8086700439453 -1006.456787109375
v  -226.6090698242188 188.8167877197266 -1079.8740234375
v  0.02297505550086498 -206.3640594482422 -1100.000122070313
v  226.6459197998047 188.81591796875 -1079.868041992188
v  453.2631225585938 -188.8130035400391 -1006.439514160156
v  226.6372528076172 -566.4282836914063 -933.0195922851563
v  -226.6006317138672 -566.43115234375 -933.02490234375
v  819.9181518554688 -188.8081665039063 -740.7965698242188
v  959.9384155273438 188.8092651367188 -548.6268310546875
v  1049.1796875 -206.3602447509766 -339.902099609375
v  1099.998901367188 188.8091278076172 -118.8599243164063
v  1100 -188.8095550537109 118.8492965698242
v  959.9494018554688 -566.420166015625 -73.37521362304688
v  819.9059448242188 -566.4279174804688 -503.1939697265625
v  959.9442749023438 -188.8099212646484 548.6152954101563
v  819.90966796875 188.8153686523438 740.8034057617188
v  648.4293823242188 -206.3569793701172 889.9174194335938
v  453.2586364746094 188.8136596679688 1006.440856933594
v  226.6231689453125 -188.8015747070313 1079.87451171875
v  366.6724243164063 -566.412109375 887.6575927734375
v  733.3283081054688 -566.4111328125 622.0350952148438
v  648.4318237304688 206.359375 -889.9161987304688
v  366.6623229980469 566.4088745117188 -887.6648559570313
v  733.3126220703125 566.4170532226563 -622.0490112304688
v  1049.181396484375 206.3609008789063 339.8960266113281
v  959.9483032226563 566.4235229492188 73.36592102050781
v  819.905029296875 566.4327392578125 503.1896667480469
v  0.01442877855151892 206.3614501953125 1100.000122070313
v  226.6302642822266 566.4323120117188 933.0183715820313
v  -226.6112365722656 566.4331665039063 933.020751953125
v  -1049.168823242188 206.3602447509766 339.9122924804688
v  -819.9016723632813 566.42578125 503.191162109375
v  -959.94287109375 566.4163208007813 73.39945220947266
v  -648.4166259765625 206.3598022460938 -889.9214477539063
v  -733.3194580078125 566.4088745117188 -622.0398559570313
v  -366.6659545898438 566.4068603515625 -887.6616821289063
v  -453.2291259765625 799.8023681640625 621.9938354492188
v  -226.6182250976563 1033.166381835938 310.9737243652344
v  -648.4194946289063 874.1299438476563 210.0420837402344
v  -366.6663513183594 1033.153198242188 -118.8266372680664
v  -733.322998046875 799.78173828125 -237.6253662109375
v  -0.002441793214529753 799.7762451171875 -768.8724975585938
v  -0.008546276949346066 1033.1494140625 -384.4542846679688
v  400.7289123535156 874.11962890625 -550.0186767578125
v  366.6517944335938 1033.16064453125 -118.8274688720703
v  733.3202514648438 799.7933349609375 -237.616943359375
v  0.006714931223541498 -799.7810668945313 768.865966796875
v  -400.7334594726563 -874.1184692382813 550.0108642578125
v  -733.3182373046875 -799.7879638671875 237.6170501708984
v  -366.6578979492188 -1033.156616210938 118.81689453125
v  0.0005549530033022165 -1033.151977539063 384.44482421875
v  366.6597900390625 -1033.158325195313 118.8173980712891
v  400.7403564453125 -874.120361328125 550.0079345703125
v  733.325927734375 -799.7905883789063 237.6063232421875
v  226.6101684570313 -1033.166748046875 -310.983154296875
v  -226.6085205078125 -1033.165405273438 -310.98291015625
v  0.008934743702411652 -874.1417236328125 -679.8099365234375
v  -453.2188415527344 -799.802001953125 -622.0023193359375
v  453.2317810058594 -799.8037109375 -621.995849609375
v  -648.4119873046875 -874.1326293945313 -210.0520477294922
v  648.4187622070313 -874.1340942382813 -210.0470581054688
v  453.2265625 799.8093872070313 621.99169921875
v  648.4138793945313 874.1397094726563 210.0382080078125
v  226.6021881103516 1033.170654296875 310.9751586914063
v  -0.001220896607264876 874.1465454101563 679.8035888671875
v  -400.7400207519531 874.1128540039063 -550.0169067382813
v  -0.009323210455477238 1100 -0.03598173707723618
v  -955.3553466796875 491.9466857910156 -309.5400085449219
v  -955.3558349609375 -491.9441833496094 309.54052734375
v  0.01065509766340256 -491.9376831054688 1001.652404785156
v  955.3588256835938 -491.9436340332031 309.5549926757813
v  590.4713134765625 -491.9551391601563 -810.330322265625
v  -590.4439086914063 -491.9537353515625 -810.3455810546875
v  0.0003329718019813299 -1099.999877929688 0.02579987421631813
v  -590.4517822265625 491.9538269042969 810.3394775390625
v  590.4661254882813 491.9603576660156 810.330322265625
v  955.3530883789063 491.9466857910156 -309.5684509277344
v  0.005937997251749039 491.9470520019531 -1001.648620605469

# 198 UV coordinates
vt 0.8893857002258301 0.1556031703948975 0
vt 0.8098158836364746 0.212370753288269 0
vt 0.8059523701667786 0.1233987212181091 0
vt 0.7263780832290649 0.1801729798316956 0
vt 0.7225131988525391 0.09120684862136841 0
vt 0.8020837306976318 0.03444457054138184 0
vt 0.8855190873146057 0.066642165184021 0
vt 0.1554801762104034 0.4663379192352295 0
vt 0.2396324872970581 0.5161332488059998 0
vt 0.1629858911037445 0.5605313181877136 0
vt 0.2396324872970581 0.6114329099655151 0
vt 0.155478298664093 0.6569316387176514 0
vt 0.08482570946216583 0.5968011617660522 0
vt 0.08276866376399994 0.5134194493293762 0
vt 0.6082423329353333 0.6779683828353882 0
vt 0.6629089713096619 0.5997188091278076 0
vt 0.7034549117088318 0.6884053945541382 0
vt 0.7581095099449158 0.6101568937301636 0
vt 0.798637866973877 0.6988446116447449 0
vt 0.7439684867858887 0.7770917415618896 0
vt 0.6487714648246765 0.7666548490524292 0
vt 0 0.7990838885307312 0
vt 0.003854405134916306 0.7101218700408936 0
vt 0.08342918753623962 0.7668876647949219 0
vt 0.08728086203336716 0.6779255867004395 0
vt 0.1668758988380432 0.7346815466880798 0
vt 0.1630104631185532 0.8236460089683533 0
vt 0.0795741081237793 0.855848491191864 0
vt 0.9607123732566833 0.06085026264190674 0
vt 0.9607123732566833 0.1561459302902222 0
vt 0.8893857598304749 0.09809798002243042 0
vt 0.9049197435379028 0.1905893087387085 0
vt 0.9607118964195251 0.1905893087387085 0
vt 0.9607118964195251 0.2858886122703552 0
vt 0.8893857598304749 0.2486328482627869 0
vt 0.9049202799797058 0.3467345833778381 0
vt 0.3923758268356323 0.2573913931846619 0
vt 0.4605008065700531 0.3273560404777527 0
vt 0.3891762495040894 0.328298807144165 0
vt 0.9049280881881714 0 0
vt 0.1668759286403656 0.7990806102752686 0
vt 0.1707375645637512 0.7101188898086548 0
vt 0.2503277361392975 0.766901433467865 0
vt 0.2541725933551788 0.6779255867004395 0
vt 0.3337419331073761 0.734699010848999 0
vt 0.3298773765563965 0.8236556649208069 0
vt 0.2464448660612106 0.8558490872383118 0
vt 0.6082423329353333 0.4341322779655457 0
vt 0.6629014015197754 0.3558810949325562 0
vt 0.7034348249435425 0.4445703029632568 0
vt 0.7580870389938354 0.3663152456283569 0
vt 0.7986413240432739 0.4550029039382935 0
vt 0.7439740896224976 0.5332508087158203 0
vt 0.6487761735916138 0.5228170156478882 0
vt 0.5240891575813293 0.4543375968933105 0
vt 0.6082423329353333 0.5041331648826599 0
vt 0.5316034555435181 0.5485331416130066 0
vt 0.6082423329353333 0.5994276404380798 0
vt 0.5240906476974487 0.6449314951896667 0
vt 0.4534495770931244 0.5848231315612793 0
vt 0.4513776004314423 0.5014188885688782 0
vt 0.5354790091514587 0.8215280771255493 0
vt 0.4559144675731659 0.8783016204833984 0
vt 0.4520571231842041 0.7893460392951965 0
vt 0.3724791407585144 0.846112847328186 0
vt 0.3686076104640961 0.7571462988853455 0
vt 0.448180079460144 0.7003763318061829 0
vt 0.5316138863563538 0.7325692176818848 0
vt 1 0.4167261719703674 0
vt 1 0.5120248198509216 0
vt 0.9286738038063049 0.4539797306060791 0
vt 0.5510161519050598 0.6659268736839294 0
vt 0.6068058013916016 0.7003732919692993 0
vt 0.5354790091514587 0.7584185004234314 0
vt 0.6068058013916016 0.7956724166870117 0
vt 0.5510152578353882 0.8565165996551514 0
vt 0.1065935716032982 0.0405307412147522 0
vt 0.03846932947635651 0.1104954481124878 0
vt 0.03526875004172325 0.03958868980407715 0
vt 0.944213330745697 0.3558810949325562 0
vt 0.3686076104640961 0.1414690017700195 0
vt 0.2948786020278931 0.184457540512085 0
vt 0.2901547849178314 0.0912519097328186 0
vt 0.2130229324102402 0.1440987586975098 0
vt 0.1956710517406464 0.05858546495437622 0
vt 0.2611880898475647 0.01200437545776367 0
vt 0.5354790091514587 0.6659268736839294 0
vt 0.3476527333259583 0.05344444513320923 0
vt 0.05942139774560928 0.1985175609588623 0
vt 0.1458974033594131 0.2131109833717346 0
vt 0.09522157162427902 0.2914496064186096 0
vt 0.1890205144882202 0.2932381629943848 0
vt 0.1481432616710663 0.3678853511810303 0
vt 0.05906229838728905 0.3498276472091675 0
vt 0.3337419033050537 0.8902976512908936 0
vt 0.01470355410128832 0.2651464343070984 0
vt 0.4133273065090179 0.169369101524353 0
vt 0.3686076104640961 0.102741003036499 0
vt 0.4491264820098877 0.07643496990203857 0
vt 0.8893857598304749 0 0
vt 0.4129686057567596 0.0180545449256897 0
vt 0.5020461678504944 0 0
vt 0.5429216623306274 0.07465058565139771 0
vt 0.4998088181018829 0.1547889709472656 0
vt 0.5669386386871338 0.2237664461135864 0
vt 0.4797777831554413 0.2409433126449585 0
vt 0.5495809316635132 0.3092992305755615 0
vt 0.6487827897071838 0.1834161281585693 0
vt 0.6339545845985413 0.09228450059890747 0
vt 0.7225131988525391 0.126873791217804 0
vt 0.6931374073028564 0.03525346517562866 0
vt 0.6082495450973511 0.8180612325668335 0
vt 0.6989390254020691 0.8435584902763367 0
vt 0.798637866973877 0.838935911655426 0
vt 0.7225131988525391 0.2264143228530884 0
vt 0.01553880888968706 0.4509855508804321 0
vt 0 0.5490861535072327 0
vt 0.01553548872470856 0.6415764689445496 0
vt 0.602033257484436 0.003143906593322754 0
vt 0.7015596032142639 0.3144388198852539 0
vt 0.6440611481666565 0.2766317129135132 0
vt 0.1668759137392044 0.8902901411056519 0
vt 0.6150895357131958 0.3558810949325562 0
vt 0.6082537174224854 0.574225127696991 0
vt 0.6989457011222839 0.5997188091278076 0
vt 0.7986413836479187 0.5950920581817627 0
vt 0.2481273859739304 0.364740252494812 0
vt 0.2800510227680206 0.2755844593048096 0
vt 0.3392315804958344 0.3326309323310852 0
vt 0.3841457962989807 0.6295782923698425 0
vt 0.3686076104640961 0.537088930606842 0
vt 0.3686076104640961 0.2410107254981995 0
vt 0.3841447830200195 0.4389867782592773 0
vt 0.1258520781993866 0.1269527673721313 0
vt 0.2242827266454697 0.2218197584152222 0
vt 0.9286725521087646 0.6194479465484619 0
vt 0.9286725521087646 0.7147476077079773 0
vt 0.8630720376968384 0.6714977025985718 0
vt 0.8483055830001831 0.7539089322090149 0
vt 0.798637866973877 0.6828188300132751 0
vt 0.1775055080652237 0 0
vt 0.848307728767395 0.5997188091278076 0
vt 0.09230881184339523 0.4351853728294373 0
vt 0.0652100145816803 0.3678853511810303 0
vt 0.1516955941915512 0.3773747682571411 0
vt 0.8672374486923218 0.7539089322090149 0
vt 0.93257075548172 0.8110901713371277 0
vt 0.8727362751960754 0.8374413251876831 0
vt 0.2396324872970581 0.5921930074691772 0
vt 0.2997371852397919 0.5243273377418518 0
vt 0.2997371852397919 0.6056978702545166 0
vt 0.9043489694595337 0.9036108255386353 0
vt 0.8215723037719727 0.9036108255386353 0
vt 0.798637866973877 0.8110891580581665 0
vt 0.657194197177887 1 0
vt 0.6082423329353333 0.9254552721977234 0
vt 0.6868364810943604 0.9216592907905579 0
vt 0.6571921110153198 0.8435584902763367 0
vt 0.7363986968994141 0.8674806952476501 0
vt 0.3538033962249756 0.5243273377418518 0
vt 0.353803426027298 0.6147857904434204 0
vt 0.2997371852397919 0.5853729844093323 0
vt 0.7363986968994141 0.9641703367233276 0
vt 0.8497502207756042 0.3547871112823486 0
vt 0.7627353072166443 0.3547871112823486 0
vt 0.7965919375419617 0.2910876870155334 0
vt 0.7225131988525391 0.2667677402496338 0
vt 0.784666895866394 0.212370753288269 0
vt 0.8633034229278564 0.2667701244354248 0
vt 0.08596936613321304 0.6779255867004395 0
vt 0.9908432364463806 0.9115418791770935 0
vt 0.9325709939002991 0.881439208984375 0
vt 0.9862372875213623 0.8327249884605408 0
vt 0.93257075548172 0.7840142250061035 0
vt 0.9908432364463806 0.7539089322090149 0
vt 0.5781794786453247 0.1460742950439453 0
vt 0.5203045606613159 0.3653688430786133 0
vt 0.4609215259552002 0.4231685400009155 0
vt 0.4338137209415436 0.3558810949325562 0
vt 0.4545807242393494 0.6659268736839294 0
vt 0.9869483709335327 0.6696599721908569 0
vt 0.9286760687828064 0.6395551562309265 0
vt 0.9823418259620667 0.5908411145210266 0
vt 0.9286738038063049 0.5421298146247864 0
vt 0.9869484305381775 0.5120248794555664 0
vt 0.2885818779468536 0.3678853511810303 0
vt 0.3677909970283508 0.4037214517593384 0
vt 0.3104782402515411 0.4477428197860718 0
vt 0.3677909970283508 0.5004112124443054 0
vt 0.2885861992835999 0.5243273377418518 0
vt 0.2396324872970581 0.4424194097518921 0
vt 0.9286738038063049 0.395042359828949 0
vt 0.9286738038063049 0.4903435707092285 0
vt 0.8630740642547607 0.4382912516593933 0
vt 0.8483103513717651 0.5100699067115784 0
vt 0 0.1823018193244934 0
vt 0.7986413836479187 0.4269672632217407 0
vt 0.8483094573020935 0.3558810949325562 0

# 92 vertex normals
vn -2081.3623046875 -1636.7060546875 9642.93359375
vn -3970.153076171875 1637.319458007813 9030.7314453125
vn -5760.0634765625 -1906.489868164063 7948.54638671875
vn -7346.720703125 1639.150268554688 6582.841796875
vn -8518.9365234375 -1639.758666992188 4973.296875
vn -6404.00390625 -5228.125 5625.783203125
vn -3354.5947265625 -5224.15673828125 7838.9853515625
vn -9813.8369140625 -1640.674926757813 997.3450927734375
vn -9813.8369140625 1640.674926757813 -997.3450927734375
vn -9333.1708984375 -1909.238403320313 -3040.253662109375
vn -8518.9365234375 1639.453491210938 -4973.296875
vn -7346.720703125 -1639.150268554688 -6582.841796875
vn -7317.728515625 -5229.95751953125 -4369.333984375
vn -8485.9765625 -5232.3984375 -777.6107177734375
vn -3970.153076171875 -1637.319458007813 -9030.7314453125
vn -2081.3623046875 1637.01123046875 -9642.93359375
vn 0 -1904.966918945313 -9816.583984375
vn 2081.66748046875 1636.7060546875 -9642.93359375
vn 3970.458251953125 -1637.319458007813 -9030.4267578125
vn 1881.160888671875 -5223.244140625 -8316.9033203125
vn -1881.160888671875 -5223.244140625 -8316.9033203125
vn 7346.720703125 -1639.150268554688 -6582.841796875
vn 8518.9365234375 1639.453491210938 -4973.60205078125
vn 9333.1708984375 -1909.543579101563 -3039.948486328125
vn 9813.8369140625 1640.674926757813 -997.6503295898438
vn 9813.8369140625 -1640.674926757813 997.6503295898438
vn 8485.9765625 -5232.3984375 -777.3055419921875
vn 7317.728515625 -5229.95751953125 -4369.333984375
vn 8518.9365234375 -1639.453491210938 4973.296875
vn 7346.720703125 1639.150268554688 6582.841796875
vn 5760.0634765625 -1906.795043945313 7948.54638671875
vn 3970.458251953125 1637.319458007813 9030.4267578125
vn 2081.66748046875 -1636.7060546875 9642.93359375
vn 3354.5947265625 -5224.15673828125 7838.9853515625
vn 6404.00390625 -5228.43017578125 5625.783203125
vn 5760.0634765625 1906.795043945313 -7948.54638671875
vn 3354.5947265625 5224.15673828125 -7838.9853515625
vn 6404.00390625 5228.43017578125 -5625.783203125
vn 9333.1708984375 1909.543579101563 3039.948486328125
vn 8485.9765625 5232.3984375 777.3055419921875
vn 7317.728515625 5229.95751953125 4369.333984375
vn 0 1905.272094726563 9816.583984375
vn 1881.160888671875 5223.244140625 8316.9033203125
vn -1881.160888671875 5223.54931640625 8316.9033203125
vn -9333.1708984375 1909.238403320313 3040.253662109375
vn -7317.728515625 5229.95751953125 4369.333984375
vn -8485.9765625 5232.3984375 777.6107177734375
vn -5760.0634765625 1906.795043945313 -7948.54638671875
vn -6404.00390625 5228.125 -5625.783203125
vn -3354.5947265625 5224.15673828125 -7838.9853515625
vn -3936.8876953125 7415.08349609375 5432.5986328125
vn -2052.6748046875 9368.2666015625 2831.81103515625
vn -5704.82470703125 7999.8173828125 1857.965454101563
vn -3321.329345703125 9369.79296875 -1082.187866210938
vn -6374.40087890625 7419.65966796875 -2076.78564453125
vn 0 7411.72412109375 -6712.8525390625
vn 0 9367.044921875 -3500.779541015625
vn 3523.667236328125 7995.84814453125 -4862.82080078125
vn 3321.329345703125 9369.79296875 -1082.187866210938
vn 6374.095703125 7419.65966796875 -2076.78564453125
vn 0 -7411.72412109375 6712.8525390625
vn -3523.667236328125 -7995.54296875 4862.82080078125
vn -6374.095703125 -7419.65966796875 2076.78564453125
vn -3321.329345703125 -9369.79296875 1081.882690429688
vn 0 -9367.044921875 3500.779541015625
vn 3321.329345703125 -9369.79296875 1081.882690429688
vn 3523.667236328125 -7995.84814453125 4862.82080078125
vn 6374.095703125 -7419.65966796875 2076.48046875
vn 2052.36962890625 -9368.2666015625 -2832.1162109375
vn -2052.36962890625 -9368.2666015625 -2832.1162109375
vn 0 -7993.40869140625 -6008.48291015625
vn -3936.8876953125 -7415.08349609375 -5432.5986328125
vn 3936.8876953125 -7415.08349609375 -5432.5986328125
vn -5704.82470703125 -7999.8173828125 -1857.965454101563
vn 5704.51953125 -8000.12255859375 -1857.965454101563
vn 3936.8876953125 7415.08349609375 5432.5986328125
vn 5704.51953125 8000.12255859375 1857.965454101563
vn 2052.36962890625 9368.2666015625 2831.81103515625
vn 0 7993.40869140625 6008.48291015625
vn -3523.667236328125 7995.54296875 -4862.82080078125
vn 0 10000 -0.001629206817597151
vn -8471.6328125 4539.6279296875 -2759.78955078125
vn -8471.6328125 -4539.6279296875 2759.78955078125
vn 0 -4531.08154296875 8914.45703125
vn 8471.6328125 -4539.6279296875 2760.0947265625
vn 5229.65185546875 -4534.44091796875 -7216.71044921875
vn -5229.65185546875 -4534.44091796875 -7217.0166015625
vn 0 -9999.6953125 0.001629157108254731
vn -5229.65185546875 4534.44091796875 7217.0166015625
vn 5229.65185546875 4534.44091796875 7216.71044921875
vn 8471.6328125 4539.6279296875 -2760.0947265625
vn 0 4531.08154296875 -8914.45703125

# Mesh 'SoccerBall-LP' with 120 faces
g SoccerBall-LP
usemtl DefaultMaterial
f  1/1/1 2/2/2 3/3/3
f  2/2/2 4/4/4 3/3/3
f  4/4/4 5/5/5 3/3/3
f  5/5/5 6/6/6 3/3/3
f  6/6/6 7/7/7 3/3/3
f  7/7/7 1/1/1 3/3/3
f  8/8/8 9/9/9 10/10/10
f  9/9/9 11/11/11 10/10/10
f  11/11/11 12/12/12 10/10/10
f  12/12/12 13/13/13 10/10/10
f  13/13/13 14/14/14 10/10/10
f  14/14/14 8/8/8 10/10/10
f  15/15/15 16/16/16 17/17/17
f  16/16/16 18/18/18 17/17/17
f  18/18/18 19/19/19 17/17/17
f  19/19/19 20/20/20 17/17/17
f  20/20/20 21/21/21 17/17/17
f  21/21/21 15/15/15 17/17/17
f  22/22/22 23/23/23 24/24/24
f  23/23/23 25/25/25 24/24/24
f  25/25/25 26/26/26 24/24/24
f  26/26/26 27/27/27 24/24/24
f  27/27/27 28/28/28 24/24/24
f  28/28/28 22/22/22 24/24/24
f  29/29/29 30/30/30 31/31/31
f  30/30/30 32/32/32 31/31/31
f  32/33/32 33/34/33 31/35/31
f  33/34/33 34/36/34 31/35/31
f  34/37/34 35/38/35 31/39/31
f  35/40/35 29/29/29 31/31/31
f  23/41/23 22/42/22 36/43/36
f  22/42/22 19/44/19 36/43/36
f  19/44/19 18/45/18 36/43/36
f  18/45/18 37/46/37 36/43/36
f  37/46/37 38/47/38 36/43/36
f  38/47/38 23/41/23 36/43/36
f  30/48/30 29/49/29 39/50/39
f  29/49/29 26/51/26 39/50/39
f  26/51/26 25/52/25 39/50/39
f  25/52/25 40/53/40 39/50/39
f  40/53/40 41/54/41 39/50/39
f  41/54/41 30/48/30 39/50/39
f  2/55/2 1/56/1 42/57/42
f  1/56/1 33/58/33 42/57/42
f  33/58/33 32/59/32 42/57/42
f  32/59/32 43/60/43 42/57/42
f  43/60/43 44/61/44 42/57/42
f  44/61/44 2/55/2 42/57/42
f  9/62/9 8/63/8 45/64/45
f  8/63/8 5/65/5 45/64/45
f  5/65/5 4/66/4 45/64/45
f  4/66/4 46/67/46 45/64/45
f  46/67/46 47/68/47 45/64/45
f  47/68/47 9/62/9 45/64/45
f  16/69/16 15/70/15 48/71/48
f  15/72/15 12/73/12 48/74/48
f  12/73/12 11/75/11 48/74/48
f  11/75/11 49/76/49 48/74/48
f  49/77/49 50/78/50 48/79/48
f  50/80/50 16/69/16 48/71/48
f  51/81/51 52/82/52 53/83/53
f  52/82/52 54/84/54 53/83/53
f  54/84/54 55/85/55 53/83/53
f  55/85/55 47/86/47 53/83/53
f  47/68/47 46/67/46 53/87/53
f  46/88/46 51/81/51 53/83/53
f  56/89/56 57/90/57 58/91/58
f  57/90/57 59/92/59 58/91/58
f  59/92/59 60/93/60 58/91/58
f  60/93/60 38/94/38 58/91/58
f  38/47/38 37/46/37 58/95/58
f  37/96/37 56/89/56 58/91/58
f  61/97/61 7/98/7 62/99/62
f  7/7/7 6/6/6 62/100/62
f  6/101/6 63/102/63 62/99/62
f  63/102/63 64/103/64 62/99/62
f  64/103/64 65/104/65 62/99/62
f  65/104/65 61/97/61 62/99/62
f  65/104/65 66/105/66 67/106/67
f  66/105/66 68/107/68 67/106/67
f  68/107/68 35/38/35 67/106/67
f  35/38/35 34/37/34 67/106/67
f  34/37/34 61/97/61 67/106/67
f  61/97/61 65/104/65 67/106/67
f  69/108/69 70/109/70 71/110/71
f  70/109/70 72/111/72 71/110/71
f  72/112/72 21/21/21 71/113/71
f  21/21/21 20/20/20 71/113/71
f  20/20/20 73/114/73 71/113/71
f  73/115/73 69/108/69 71/110/71
f  63/116/63 14/14/14 74/117/74
f  14/14/14 13/13/13 74/117/74
f  13/13/13 72/118/72 74/117/74
f  72/111/72 70/109/70 74/119/74
f  70/109/70 64/103/64 74/119/74
f  64/103/64 63/102/63 74/119/74
f  73/115/73 28/120/28 75/121/75
f  28/28/28 27/27/27 75/122/75
f  27/123/27 68/107/68 75/121/75
f  68/107/68 66/105/66 75/121/75
f  66/105/66 69/108/69 75/121/75
f  69/108/69 73/115/73 75/121/75
f  76/124/76 41/54/41 77/125/77
f  41/54/41 40/53/40 77/125/77
f  40/53/40 60/126/60 77/125/77
f  60/93/60 59/92/59 77/127/77
f  59/92/59 78/128/78 77/127/77
f  78/128/78 76/129/76 77/127/77
f  43/60/43 76/130/76 79/131/79
f  76/129/76 78/128/78 79/132/79
f  78/128/78 52/82/52 79/132/79
f  52/82/52 51/81/51 79/132/79
f  51/133/51 44/61/44 79/131/79
f  44/61/44 43/60/43 79/131/79
f  49/77/49 55/85/55 80/134/80
f  55/85/55 54/84/54 80/134/80
f  54/84/54 57/90/57 80/134/80
f  57/90/57 56/89/56 80/134/80
f  56/89/56 50/78/50 80/134/80
f  50/78/50 49/77/49 80/134/80

# Mesh 'SoccerBall-LP' with 60 faces
g SoccerBall-LP
usemtl DefaultMaterial
f  54/84/54 52/82/52 81/135/81
f  52/82/52 78/128/78 81/135/81
f  78/128/78 59/92/59 81/135/81
f  59/92/59 57/90/57 81/135/81
f  57/90/57 54/84/54 81/135/81
f  11/136/11 9/137/9 82/138/82
f  9/137/9 47/139/47 82/138/82
f  47/139/47 55/140/55 82/138/82
f  55/85/55 49/77/49 82/141/82
f  49/142/49 11/136/11 82/138/82
f  14/14/14 63/116/63 83/143/83
f  63/116/63 6/144/6 83/143/83
f  6/144/6 5/145/5 83/143/83
f  5/145/5 8/8/8 83/143/83
f  8/8/8 14/14/14 83/143/83
f  7/146/7 61/147/61 84/148/84
f  61/149/61 34/150/34 84/151/84
f  34/152/34 33/153/33 84/148/84
f  33/153/33 1/154/1 84/148/84
f  1/154/1 7/146/7 84/148/84
f  27/155/27 26/156/26 85/157/85
f  26/156/26 29/158/29 85/157/85
f  29/158/29 35/159/35 85/157/85
f  35/160/35 68/161/68 85/162/85
f  68/163/68 27/155/27 85/157/85
f  22/164/22 28/165/28 86/166/86
f  28/165/28 73/167/73 86/166/86
f  73/167/73 20/168/20 86/166/86
f  20/168/20 19/169/19 86/166/86
f  19/169/19 22/164/22 86/166/86
f  72/118/72 13/13/13 87/170/87
f  13/13/13 12/12/12 87/170/87
f  12/171/12 15/172/15 87/173/87
f  15/172/15 21/174/21 87/173/87
f  21/174/21 72/175/72 87/173/87
f  64/103/64 70/109/70 88/176/88
f  70/109/70 69/108/69 88/176/88
f  69/108/69 66/105/66 88/176/88
f  66/105/66 65/104/65 88/176/88
f  65/104/65 64/103/64 88/176/88
f  4/177/4 2/55/2 89/178/89
f  2/55/2 44/61/44 89/178/89
f  44/61/44 51/133/51 89/178/89
f  51/133/51 46/179/46 89/178/89
f  46/179/46 4/177/4 89/178/89
f  43/60/43 32/59/32 90/180/90
f  32/181/32 30/182/30 90/183/90
f  30/182/30 41/184/41 90/183/90
f  41/184/41 76/185/76 90/183/90
f  76/130/76 43/60/43 90/180/90
f  23/186/23 38/187/38 91/188/91
f  38/187/38 60/189/60 91/188/91
f  60/189/60 40/190/40 91/188/91
f  40/190/40 25/191/25 91/188/91
f  25/191/25 23/186/23 91/188/91
f  18/192/18 16/193/16 92/194/92
f  16/193/16 50/195/50 92/194/92
f  50/78/50 56/89/56 92/196/92
f  56/197/56 37/198/37 92/194/92
f  37/198/37 18/192/18 92/194/92

